<?xml version="1.0" encoding="UTF-8"?>
<svg version="1.1" xmlns="http://www.w3.org/2000/svg" width="100" height="32">
<path d="M0 0 C33 0 66 0 100 0 C100 10.56 100 21.12 100 32 C67 32 34 32 0 32 C0 21.44 0 10.88 0 0 Z " fill="#009FE4" transform="translate(0,0)"/>
<path d="M0 0 C0.33 1.65 0.66 3.3 1 5 C0.01 5 -0.98 5 -2 5 C-2.33 4.34 -2.66 3.68 -3 3 C-3.99 3 -4.98 3 -6 3 C-6.33 3.99 -6.66 4.98 -7 6 C-5.88625 6.28875 -4.7725 6.5775 -3.625 6.875 C0 8 0 8 2 10 C2.375 12.4375 2.375 12.4375 2 15 C0.4375 16.875 0.4375 16.875 -2 18 C-8.32727273 17.67272727 -8.32727273 17.67272727 -11 15 C-10.625 12.875 -10.625 12.875 -10 11 C-9.34 11 -8.68 11 -8 11 C-7.67 12.32 -7.34 13.64 -7 15 C-5.01508358 14.73323796 -5.01508358 14.73323796 -3 14 C-2.67 13.01 -2.34 12.02 -2 11 C-3.11375 10.71125 -4.2275 10.4225 -5.375 10.125 C-9 9 -9 9 -11 7 C-11.375 4.5625 -11.375 4.5625 -11 2 C-7.73834694 -1.91398368 -4.64693774 -0.98300606 0 0 Z " fill="#000D10" transform="translate(61,7)"/>
<path d="M0 0 C3.96 0 7.92 0 12 0 C12 0.99 12 1.98 12 3 C9.03 3 6.06 3 3 3 C3 4.65 3 6.3 3 8 C4.65 8 6.3 8 8 8 C8 8.99 8 9.98 8 11 C6.35 11 4.7 11 3 11 C3 12.65 3 14.3 3 16 C5.97 16 8.94 16 12 16 C12 16.99 12 17.98 12 19 C8.04 19 4.08 19 0 19 C0 12.73 0 6.46 0 0 Z " fill="#000004" transform="translate(36,6)"/>
<path d="M0 0 C4.62 0 9.24 0 14 0 C14 0.99 14 1.98 14 3 C12.35 3 10.7 3 9 3 C9 8.28 9 13.56 9 19 C8.01 19 7.02 19 6 19 C6 13.72 6 8.44 6 3 C4.02 3 2.04 3 0 3 C0 2.01 0 1.02 0 0 Z " fill="#000200" transform="translate(64,6)"/>
<path d="M0 0 C4.62 0 9.24 0 14 0 C14 0.99 14 1.98 14 3 C12.35 3 10.7 3 9 3 C9 8.28 9 13.56 9 19 C8.01 19 7.02 19 6 19 C6 13.72 6 8.44 6 3 C4.02 3 2.04 3 0 3 C0 2.01 0 1.02 0 0 Z " fill="#000200" transform="translate(19,6)"/>
<path d="M0 0 C1.98 0.495 1.98 0.495 4 1 C4 1.66 4 2.32 4 3 C4.66 3.33 5.32 3.66 6 4 C5.34 4.66 4.68 5.32 4 6 C1.525 5.01 1.525 5.01 -1 4 C-0.67 2.68 -0.34 1.36 0 0 Z " fill="#0091D4" transform="translate(55,9)"/>
</svg>
